<?xml version="1.0" encoding="utf-8"?>

<!DOCTYPE svg PUBLIC "-//W3C//DTD SVG 1.1//EN" "http://www.w3.org/Graphics/SVG/1.1/DTD/svg11.dtd">
<svg version="1.1" id="Layer_1" xmlns="http://www.w3.org/2000/svg" xmlns:xlink="http://www.w3.org/1999/xlink" x="0px" y="0px"
	 viewBox="0 0 621.1458 1710.4381" enable-background="new 0 0 621.1458 1710.4381" xml:space="preserve">
<title>Layer 1</title>
<g>
	<path fill="#093B88" d="M558.1097,1494.3219c-0.2025-2.6609-0.4379-5.2804-0.7058-7.8585l-9.8328,0.7563L558.1097,1494.3219z"/>
	<path fill="#00D2AE" d="M557.4039,1486.4634c-0.2542-2.4456-0.5305-4.8629-0.8411-7.2362l-8.9917,7.9926L557.4039,1486.4634z"/>
	<path fill="#8A1A60" d="M558.9373,1517.0559c0.021-0.3372,0.0419-0.6715,0.0631-1.011c-0.0468-7.5479-0.3615-14.77-0.8907-21.723
		l-10.5386-7.1022L558.9373,1517.0559z"/>
	<path fill="#1CEAD5" d="M556.5628,1479.2272c-1.075-8.2131-2.4768-16.0031-4.1613-23.4052l-4.8304,31.3977L556.5628,1479.2272z"/>
	<path fill="#00E678" d="M548.1063,1576.8676l-14.709,19.7317C539.9402,1590.2135,544.6553,1583.7411,548.1063,1576.8676z"/>
	<path fill="#A1001B" d="M533.0377,1402.2197c-1.5524-3.0587-3.1433-6.043-4.77-8.9502l-10.6965,8.9502H533.0377z"/>
	<path fill="#800081" d="M511.0785,1613.7726c0.0773-0.0635,0.1581-0.1241,0.2351-0.1877
		c9.0614-5.7404,16.2882-11.3293,22.0836-16.9856l14.709-19.7317c0.7559-1.5051,1.4495-3.0304,2.0901-4.5773l-37.6253,1.9294
		L511.0785,1613.7726z"/>
	<path fill="#529D65" d="M550.6662,1571.1298c4.8414-12.2921,6.384-26.0386,7.5485-42.8665l-50.6436-9.0436L550.6662,1571.1298z"/>
	<path fill="#E01300" d="M507.5711,1519.2197l50.6436,9.0436c0.2484-3.5892,0.48-7.3221,0.7227-11.2074l-11.3662-29.8362
		L507.5711,1519.2197z"/>
	<path fill="#B7A900" d="M528.2676,1393.2695c-5.1543-9.2117-10.6394-17.6934-16.1924-25.6742l5.4959,34.6244L528.2676,1393.2695z"
		/>
	<path fill="#A25C00" d="M512.571,1574.2197l37.6253-1.9294c0.1597-0.3855,0.3169-0.7721,0.4698-1.1605l-43.0951-51.91
		L512.571,1574.2197z"/>
	<path fill="#D36331" d="M547.5711,1487.2197l4.8304-31.3977c-1.1317-4.9729-2.3893-9.7727-3.7577-14.4119l-40.0728,35.8096
		L547.5711,1487.2197z"/>
	<path fill="#0013FF" d="M508.5711,1477.2197l40.0728-35.8096c-0.6931-2.3494-1.4202-4.6492-2.168-6.918l-40.9048-3.2725
		L508.5711,1477.2197z"/>
	<path fill="#26CE30" d="M542.7723,1424.1049c-2.9756-7.7455-6.249-15.0177-9.7346-21.8851h-15.4666L542.7723,1424.1049z"/>
	<path fill="#93B800" d="M505.5711,1431.2197l40.9048,3.2725c-1.1724-3.5573-2.4092-7.0177-3.7036-10.3873l-25.2012-21.8851
		L505.5711,1431.2197z"/>
	<polygon fill="#1EA100" points="547.5711,1487.2197 508.5711,1477.2197 507.5711,1519.2197 	"/>
	<polygon fill="#3500DC" points="512.571,1574.2197 507.5711,1519.2197 472.571,1572.2197 	"/>
	<path fill="#4C7900" d="M470.571,1618.2197l25.6372,5.7684c5.3394-3.0969,10.3296-6.4899,14.8703-10.2156l1.4925-39.5529
		L470.571,1618.2197z"/>
	<path fill="#E8C000" d="M458.4466,1216.9479c0.1766-1.6403,0.3615-3.2827,0.5575-4.9292l-1.4331,0.201L458.4466,1216.9479z"/>
	<path fill="#008FCA" d="M517.5711,1402.2197l-5.4959-34.6244c-4.2202-6.0649-8.4779-11.844-12.6601-17.4232l-26.844,36.0476
		L517.5711,1402.2197z"/>
	<path fill="#7F1100" d="M473.4456,1313.9847c-2.1133-3.3955-4.0837-6.8032-5.8745-10.2485v10.4835L473.4456,1313.9847z"/>
	<path fill="#080096" d="M483.7576,1036.5969c-1.6628-5.9792-3.9204-11.8022-6.7744-17.4683l-15.4121,15.0911L483.7576,1036.5969z"
		/>
	<path fill="#BF0076" d="M485.5226,1082.1028c0.8339-4.7905,1.3588-9.5001,1.5914-14.1333l-14.543,13.2502L485.5226,1082.1028z"/>
	<path fill="#00B80E" d="M472.4954,1137.7748c0.4791-2.11,0.96-4.2094,1.4424-6.2914l-6.3667,1.7363L472.4954,1137.7748z"/>
	<path fill="#921200" d="M483.9718,1089.6563c0.0493-0.2048,0.1007-0.4164,0.1498-0.6205c0.5366-2.3292,1.002-4.6398,1.401-6.933
		l-12.9515-0.8831L483.9718,1089.6563z"/>
	<path fill="#003FB6" d="M467.571,1133.2197l6.3667-1.7363c3.4524-14.8977,6.9536-29.0327,10.0341-41.8271l-11.4008-8.4365
		L467.571,1133.2197z"/>
	<polygon fill="#1787F4" points="470.571,1618.2197 512.571,1574.2197 472.571,1572.2197 	"/>
	<polygon fill="#A8178E" points="472.571,1572.2197 507.5711,1519.2197 457.571,1534.2197 	"/>
	<path fill="#FF00AF" d="M472.571,1081.2197l14.543-13.2502c0.5471-10.8943-0.5699-21.3527-3.3564-31.3726l-22.1865-2.3772
		L472.571,1081.2197z"/>
	<polygon fill="#FE0052" points="507.5711,1519.2197 508.5711,1477.2197 469.571,1481.2197 	"/>
	<polygon fill="#F0F300" points="517.5711,1402.2197 472.571,1386.2197 505.5711,1431.2197 	"/>
	<path fill="#0002A8" d="M477.7073,1320.5549c-1.4763-2.1899-2.8976-4.3781-4.2617-6.5702l-5.8745,0.235L477.7073,1320.5549z"/>
	<polygon fill="#B96637" points="508.5711,1477.2197 505.5711,1431.2197 464.571,1434.2197 	"/>
	<polygon fill="#3ED2E7" points="469.571,1481.2197 508.5711,1477.2197 464.571,1434.2197 	"/>
	<path fill="#00BDEC" d="M472.571,1386.2197l26.844-36.0476c-2.1218-2.8303-4.2217-5.6093-6.2888-8.3523l-35.5552,6.3999
		L472.571,1386.2197z"/>
	<path fill="#F35B19" d="M476.9832,1019.1287c-4.4691-8.8729-10.3884-17.3643-17.7881-25.4651
		c-0.2808-0.3074-0.5459-0.5421-0.7988-0.7166l3.1748,41.2728L476.9832,1019.1287z"/>
	<path fill="#36BD89" d="M459.0041,1212.0187c0.4612-3.8741,0.9729-7.762,1.5318-11.6581l-2.9649,11.8591L459.0041,1212.0187z"/>
	<path fill="#740C90" d="M467.571,1160.5002c1.5752-7.693,3.2355-15.2896,4.9243-22.7255l-4.9243-4.5551V1160.5002z"/>
	<path fill="#47AD98" d="M471.3407,1635.5367c8.8373-3.2875,17.2144-7.1097,24.8676-11.5486l-25.6372-5.7684L471.3407,1635.5367z"/>
	<polygon fill="#B03700" points="505.5711,1431.2197 472.571,1386.2197 464.571,1434.2197 	"/>
	<polygon fill="#DD4B00" points="457.571,1534.2197 507.5711,1519.2197 469.571,1481.2197 	"/>
	<path fill="#A749C8" d="M457.571,1348.2197l35.5552-6.3999c-5.4792-7.2709-10.7112-14.2822-15.4189-21.2649l-10.1362-6.3352
		L457.571,1348.2197z"/>
	<path fill="#0DAF33" d="M427.571,1217.2197l28.8184,35.3026c-0.0062-11.489,0.7502-23.4347,2.0573-35.5745l-0.8756-4.7281
		L427.571,1217.2197z"/>
	<polygon fill="#7E9400" points="457.571,1534.2197 469.571,1481.2197 417.571,1518.2197 	"/>
	<path fill="#002DE0" d="M422.571,1625.2197l2.6557,22.5729c5.8807-1.0731,11.754-2.2948,17.5619-3.6846l27.7825-25.8883
		L422.571,1625.2197z"/>
	<path fill="#630036" d="M442.7885,1644.108c9.8092-2.3473,19.423-5.1753,28.5522-8.5713l-0.7697-17.317L442.7885,1644.108z"/>
	<polygon fill="#5500D1" points="430.571,1586.2197 470.571,1618.2197 472.571,1572.2197 	"/>
	<polygon fill="#BA8200" points="464.571,1434.2197 472.571,1386.2197 428.571,1392.2197 	"/>
	<polygon fill="#436632" points="472.571,1081.2197 413.571,1115.2197 467.571,1133.2197 	"/>
	<path fill="#9CB200" d="M458.3962,992.947c-4.0227-2.7762-4.6825,10.9161-7.5601,29.9576l10.7349,11.3151L458.3962,992.947z"/>
	<polygon fill="#00E235" points="464.571,1434.2197 428.571,1392.2197 429.571,1430.2197 	"/>
	<path fill="#9E8707" d="M467.571,1314.2197v-10.4835c-4.925-9.4755-8.5071-19.2437-10.0784-29.8644l-43.9217,33.3479
		L467.571,1314.2197z"/>
	<polygon fill="#E56871" points="469.571,1481.2197 464.571,1434.2197 429.571,1430.2197 	"/>
	<path fill="#2483EB" d="M461.571,1034.2197l-17.2514,19.3215c-3.5944,12.118-8.7515,24.1958-16.453,34.2742l44.7044-6.5957
		L461.571,1034.2197z"/>
	<path fill="#023E40" d="M472.571,1081.2197l-44.7044,6.5957c-0.0344,0.045-0.0671,0.0916-0.1016,0.1365
		c-4.4038,6.1346-9.5327,11.4897-15.0882,16.0924l0.894,11.1754L472.571,1081.2197z"/>
	<polygon fill="#16D840" points="417.571,1518.2197 469.571,1481.2197 415.571,1483.2197 	"/>
	<polygon fill="#7DC700" points="415.571,1483.2197 469.571,1481.2197 429.571,1430.2197 	"/>
	<polygon fill="#0596C2" points="472.571,1572.2197 457.571,1534.2197 430.571,1586.2197 	"/>
	<polygon fill="#F5FC00" points="472.571,1386.2197 457.571,1348.2197 432.571,1355.2197 	"/>
	<polygon fill="#4900F3" points="428.571,1392.2197 472.571,1386.2197 432.571,1355.2197 	"/>
	<path fill="#003143" d="M450.8362,1022.9046c-0.3999,2.6458-0.844,5.3956-1.3445,8.218l12.0794,3.0972L450.8362,1022.9046z"/>
	<path fill="#CAB900" d="M413.571,1165.2197l51.7405,6.7072c0.7279-3.8262,1.4836-7.6373,2.2595-11.4266v-27.2805L413.571,1165.2197
		z"/>
	<path fill="#00CB1A" d="M411.571,1264.2197l45.1805,1.6136c-0.252-4.3523-0.3596-8.7999-0.3621-13.311l-28.8184-35.3026
		L411.571,1264.2197z"/>
	<path fill="#BADB00" d="M413.571,1307.2197l43.9217-33.3479c-0.1351-0.9137-0.2628-1.8304-0.3678-2.7571
		c-0.1473-1.7449-0.2706-3.5063-0.3734-5.2814l-45.1805-1.6136L413.571,1307.2197z"/>
	<path fill="#FE7E07" d="M449.4917,1031.1226c-1.2704,7.1637-2.9115,14.7976-5.172,22.4187l17.2514-19.3215L449.4917,1031.1226z"/>
	<polygon fill="#D54C80" points="422.571,1625.2197 470.571,1618.2197 430.571,1586.2197 	"/>
	<path fill="#DE9B00" d="M457.571,1212.2197l2.9649-11.8591c1.3599-9.4808,2.9811-19,4.7756-28.4337l-51.7405-6.7072
		L457.571,1212.2197z"/>
	<polygon fill="#13D79B" points="457.571,1212.2197 413.571,1165.2197 427.571,1217.2197 	"/>
	<polygon fill="#2E001D" points="467.571,1314.2197 413.571,1307.2197 457.571,1348.2197 	"/>
	<polygon fill="#128818" points="457.571,1348.2197 413.571,1307.2197 432.571,1355.2197 	"/>
	<polygon fill="#5300F2" points="467.571,1133.2197 413.571,1115.2197 413.571,1165.2197 	"/>
	<polygon fill="#37A800" points="430.571,1586.2197 457.571,1534.2197 417.571,1518.2197 	"/>
	<polygon fill="#002C78" points="386.571,1477.2197 415.571,1483.2197 381.571,1442.2197 	"/>
	<polygon fill="#0C00E5" points="427.571,1217.2197 413.571,1165.2197 372.571,1207.2197 	"/>
	<polygon fill="#00C166" points="429.571,1430.2197 428.571,1392.2197 368.571,1403.2197 	"/>
	<polygon fill="#71007C" points="415.571,1483.2197 429.571,1430.2197 381.571,1442.2197 	"/>
	<polygon fill="#00CB79" points="366.571,1570.2197 430.571,1586.2197 417.571,1518.2197 	"/>
	<polygon fill="#F100FC" points="383.571,1614.2197 422.571,1625.2197 430.571,1586.2197 	"/>
	<polygon fill="#005892" points="432.571,1355.2197 370.571,1351.2197 428.571,1392.2197 	"/>
	<polygon fill="#19B1F7" points="432.571,1355.2197 413.571,1307.2197 370.571,1351.2197 	"/>
	<polygon fill="#00EE75" points="429.571,1430.2197 368.571,1403.2197 381.571,1442.2197 	"/>
	<polygon fill="#C61F00" points="411.571,1264.2197 427.571,1217.2197 388.571,1266.2197 	"/>
	<polygon fill="#5250E8" points="388.571,1266.2197 427.571,1217.2197 372.571,1207.2197 	"/>
	<polygon fill="#03ED00" points="428.571,1392.2197 370.571,1351.2197 368.571,1403.2197 	"/>
	<polygon fill="#FE6A56" points="366.571,1570.2197 383.571,1614.2197 430.571,1586.2197 	"/>
	<polygon fill="#CF0015" points="413.571,1115.2197 376.571,1136.2197 413.571,1165.2197 	"/>
	<polygon fill="#5500F8" points="368.571,1519.2197 366.571,1570.2197 417.571,1518.2197 	"/>
	<path fill="#A90088" d="M383.571,1614.2197l-14.4736,40.0155c3.033-0.1724,6.1294-0.3732,9.2821-0.6067l44.1916-28.4088
		L383.571,1614.2197z"/>
	<path fill="#DD2500" d="M378.3794,1653.6285c14.8352-1.0989,30.8603-2.9186,46.8472-5.8359l-2.6557-22.5729L378.3794,1653.6285z"/>
	<polygon fill="#B2005B" points="413.571,1307.2197 411.571,1264.2197 388.571,1266.2197 	"/>
	<polygon fill="#E7ED00" points="417.571,1518.2197 415.571,1483.2197 386.571,1477.2197 	"/>
	<polygon fill="#089A00" points="376.571,1302.2197 413.571,1307.2197 388.571,1266.2197 	"/>
	<polygon fill="#00F1E6" points="370.571,1351.2197 413.571,1307.2197 376.571,1302.2197 	"/>
	<polygon fill="#088932" points="372.571,1207.2197 413.571,1165.2197 366.571,1168.2197 	"/>
	<polygon fill="#F72C34" points="368.571,1519.2197 417.571,1518.2197 386.571,1477.2197 	"/>
	<polygon fill="#B5009C" points="413.571,1165.2197 376.571,1136.2197 366.571,1168.2197 	"/>
	<path fill="#00F44A" d="M412.6769,1104.0443c-2.0269,1.6792-4.1067,3.2653-6.2341,4.7427l7.1282,6.4327L412.6769,1104.0443z"/>
	<path fill="#FC00AA" d="M413.571,1115.2197l-7.1282-6.4327c-9.8049,6.8086-20.5276,11.4712-30.7942,14.0579l0.9224,13.3749
		L413.571,1115.2197z"/>
	<path fill="#D9BD00" d="M360.6977,87.2309c-4.3887-3.931-10.6943-3.9027-13.6295-0.8541c-0.3032,0.3149-0.5619,0.7161-0.7848,1.173
		l16.49,5.6537C362.4191,90.4697,361.7589,88.2404,360.6977,87.2309z"/>
	<polygon fill="#D9BD00" points="337.6471,84.5886 337.6022,82.8447 336.5709,84.2197 	"/>
	<polygon fill="#E6F300" points="370.571,1351.2197 376.571,1302.2197 343.5709,1308.2197 	"/>
	<path fill="#E98113" d="M376.571,1136.2197l-0.9224-13.3749c-14.7384,3.7131-28.5353,3.1396-37.313-1.577l-0.0154-0.9685
		l-0.7493,0.9204L376.571,1136.2197z"/>
	<polygon fill="#75F800" points="323.5709,632.2197 330.5721,633.2765 329.9408,593.5896 323.5709,587.2197 	"/>
	<polygon fill="#00E9A2" points="329.9408,593.5896 329.8141,585.6306 323.5709,587.2197 	"/>
	<path fill="#BD0097" d="M337.5709,1621.2197l24.2036,33.3844c2.3917-0.1045,4.8361-0.2277,7.3228-0.3689l14.4736-40.0155
		L337.5709,1621.2197z"/>
	<path fill="#AD12C7" d="M346.6053,162.5469c0,0-0.7004,6.0398,2.3218,10.5989c2.5207,2.4739,9.9533,3.625,13.9666,0.0452
		c2.1171-3.1827,3.2351-21.3114-0.4446-24.8118c-0.3372-0.302-0.6887-0.5726-1.0461-0.8284l-18.2058,15.0549L346.6053,162.5469z"/>
	<polygon fill="#AD12C7" points="339.9551,174.2692 339.7288,165.4739 331.5709,172.2197 	"/>
	<path fill="#5B7900" d="M331.5709,172.2197l8.1578-6.7458l-0.0723-2.8071l3.5406-0.061l18.2058-15.0549
		c-4.2944-3.0723-9.8738-2.8401-12.5834-0.0258c-2.366,2.4572-2.1012,10.0552-2.1012,10.0552l-7.1904,0.0911l-0.6471-25.1412
		l-9.3099,0.6897L331.5709,172.2197z"/>
	<polygon fill="#00AB96" points="340.5709,1483.2197 368.571,1519.2197 386.571,1477.2197 	"/>
	<polygon fill="#00B2A1" points="381.571,1442.2197 339.5709,1446.2197 386.571,1477.2197 	"/>
	<polygon fill="#C30055" points="339.5709,1446.2197 340.5709,1483.2197 386.571,1477.2197 	"/>
	<polygon fill="#4F00E4" points="335.6965,955.3834 335.694,955.2197 335.5709,955.2197 	"/>
	<polygon fill="#94EA00" points="335.694,955.2197 335.6578,952.9578 335.5709,955.2197 	"/>
	<polygon fill="#64EDC3" points="388.571,1266.2197 372.571,1207.2197 338.5709,1208.2197 	"/>
	<polygon fill="#00B21B" points="323.5709,1271.2197 388.571,1266.2197 338.5709,1208.2197 	"/>
	<polygon fill="#0018AF" points="376.571,1302.2197 388.571,1266.2197 323.5709,1271.2197 	"/>
	<polygon fill="#008E9D" points="332.5709,1585.2197 383.571,1614.2197 366.571,1570.2197 	"/>
	<polygon fill="#AA0062" points="343.5709,1308.2197 376.571,1302.2197 323.5709,1271.2197 	"/>
	<polygon fill="#73AF00" points="332.5709,1585.2197 337.5709,1621.2197 383.571,1614.2197 	"/>
	<polygon fill="#ACF900" points="368.571,1403.2197 370.571,1351.2197 328.5709,1385.2197 	"/>
	<polygon fill="#1A2600" points="336.8033,1024.9512 336.7299,1020.3317 332.5709,1023.2197 	"/>
	<polygon fill="#001D6B" points="381.571,1442.2197 368.571,1403.2197 339.5709,1446.2197 	"/>
	<polygon fill="#00F451" points="338.8809,132.53 338.6918,125.1846 329.5709,133.2197 	"/>
	<path fill="#00F451" d="M361.1422,112.0426c0.7832-1.1776,1.4288-4.4025,1.7462-8.174L351.404,113.986
		C354.5928,114.6829,358.5685,114.3384,361.1422,112.0426z"/>
	<polygon fill="#E90063" points="324.1715,230.9545 324.1063,226.8604 322.5709,227.2197 	"/>
	<polygon fill="#768215" points="337.5709,1121.2197 338.3202,1120.2993 337.8219,1088.9755 330.5709,1091.2197 	"/>
	<polygon fill="#75A810" points="332.4921,753.9595 332.0023,723.1788 321.5709,725.2197 	"/>
	<polygon fill="#32C670" points="323.5709,1531.2197 366.571,1570.2197 368.571,1519.2197 	"/>
	<polygon fill="#0002F2" points="372.571,1207.2197 366.571,1168.2197 338.5709,1208.2197 	"/>
	<polygon fill="#C85900" points="330.5709,1091.2197 337.8219,1088.9755 336.8698,1029.1306 332.5709,1023.2197 	"/>
	<polygon fill="#128BA0" points="336.8698,1029.1306 336.8033,1024.9512 332.5709,1023.2197 	"/>
	<polygon fill="#1884E8" points="340.1583,182.163 339.9551,174.2692 331.5709,172.2197 	"/>
	<polygon fill="#D73E40" points="329.8141,585.6306 329.6415,574.7753 323.5709,587.2197 	"/>
	<polygon fill="#00CBA2" points="366.571,1168.2197 376.571,1136.2197 330.5709,1164.2197 	"/>
	<polygon fill="#00867F" points="376.571,1136.2197 337.5709,1121.2197 330.5709,1164.2197 	"/>
	<polygon fill="#D8DE00" points="330.9229,655.3259 330.5721,633.2765 323.5709,632.2197 	"/>
	<path fill="#F20061" d="M339.9941,1655.145c6.5524-0.0397,13.8874-0.1959,21.7804-0.5409l-24.2036-33.3844L339.9941,1655.145z"/>
	<polygon fill="#016700" points="325.5709,990.2197 336.2823,992.2126 335.6965,955.3834 335.5709,955.2197 	"/>
	<path fill="#5A00F7" d="M337.6022,82.8447l-0.3107-12.0701c-1.7635-0.2585-3.4508-0.9015-5.0189-1.7942l4.2983,15.2393
		L337.6022,82.8447z"/>
	<polygon fill="#149100" points="321.5709,1349.2197 370.571,1351.2197 343.5709,1308.2197 	"/>
	<path fill="#D9B402" d="M329.5709,133.2197l9.1208-8.0352l-0.6091-23.6692l6.7712-0.1169c0,0-0.7004,6.0398,2.3218,10.5989
		c0.9041,0.8875,2.4447,1.5989,4.2283,1.9886l11.4845-10.1173c0.2931-3.4824,0.3046-7.4272-0.1151-10.6653l-16.49-5.6537
		c-1.5164,3.1088-1.3164,8.8822-1.3164,8.8822l-7.0128,0.0889l-0.307-11.9321l-1.0762-0.3689L329.5709,133.2197z"/>
	<polygon fill="#E35A00" points="324.1063,226.8604 323.9755,218.6359 322.5709,227.2197 	"/>
	<path fill="#E35A00" d="M326.3066,204.3902c2.3337-3.2739,6.6588-5.4746,14.2675-6.0684l-0.4158-16.1588l-8.5874-9.9432
		L326.3066,204.3902z"/>
	<polygon fill="#00AEA2" points="328.5709,1385.2197 370.571,1351.2197 321.5709,1349.2197 	"/>
	<polygon fill="#C08A12" points="366.571,1168.2197 330.5709,1164.2197 338.5709,1208.2197 	"/>
	<polygon fill="#4BDF3C" points="368.571,1403.2197 328.5709,1385.2197 339.5709,1446.2197 	"/>
	<polygon fill="#3FCA00" points="323.5709,1531.2197 332.5709,1585.2197 366.571,1570.2197 	"/>
	<polygon fill="#2A1C00" points="332.0023,723.1788 331.5487,694.6628 321.5709,725.2197 	"/>
	<polygon fill="#AF1800" points="340.5709,1483.2197 323.5709,1531.2197 368.571,1519.2197 	"/>
	<polygon fill="#FAC000" points="332.5709,1023.2197 336.7299,1020.3317 336.2823,992.2126 325.5709,990.2197 	"/>
	<polygon fill="#F41E1C" points="293.5709,1537.2197 332.5709,1585.2197 323.5709,1531.2197 	"/>
	<polygon fill="#56F20A" points="284.5709,1574.2197 332.5709,1585.2197 293.5709,1537.2197 	"/>
	<polygon fill="#005BF6" points="332.5709,1023.2197 296.5709,1087.2197 330.5709,1091.2197 	"/>
	<polygon fill="#FD18B7" points="286.5709,1023.2197 296.5709,1087.2197 332.5709,1023.2197 	"/>
	<polygon fill="#F837F4" points="336.5709,84.2197 282.5709,95.2197 329.5709,133.2197 	"/>
	<polygon fill="#9A5B00" points="337.5709,1121.2197 292.5709,1117.2197 330.5709,1164.2197 	"/>
	<polygon fill="#8200E7" points="335.5709,955.2197 335.6578,952.9578 334.8883,904.5837 278.5709,933.2197 	"/>
	<polygon fill="#00C764" points="278.5709,933.2197 334.8883,904.5837 334.86,902.798 292.5709,896.2197 	"/>
	<polygon fill="#00E4F7" points="325.9681,343.8792 325.4171,309.2443 288.5709,320.2198 	"/>
	<polygon fill="#3B0095" points="296.5709,353.2198 326.0938,351.7796 325.9681,343.8792 288.5709,320.2198 	"/>
	<polygon fill="#180068" points="293.5709,411.2198 326.3287,366.5501 326.0938,351.7796 296.5709,353.2198 	"/>
	<polygon fill="#00E7C5" points="338.5709,1208.2197 290.5709,1222.2197 323.5709,1271.2197 	"/>
	<polygon fill="#AD001B" points="339.5709,1446.2197 328.5709,1385.2197 299.5709,1389.2197 	"/>
	<polygon fill="#E7A52A" points="339.5709,1446.2197 299.5709,1389.2197 285.5709,1436.2197 	"/>
	<path fill="#2B6F19" d="M337.5709,1621.2197l-44.0244,33.9354c11.5466-0.1383,19.6724-0.4468,22.6814-0.3868
		c5.4945,0.2256,13.7067,0.4376,23.7662,0.3767L337.5709,1621.2197z"/>
	<polygon fill="#0F00B3" points="284.5709,1476.2197 340.5709,1483.2197 339.5709,1446.2197 	"/>
	<polygon fill="#00A57E" points="284.5709,1476.2197 323.5709,1531.2197 340.5709,1483.2197 	"/>
	<polygon fill="#E35300" points="334.86,902.798 334.1217,856.4001 292.5709,896.2197 	"/>
	<polygon fill="#B5238B" points="292.5709,896.2197 334.1217,856.4001 334.0164,849.7753 281.5709,846.2197 	"/>
	<polygon fill="#002561" points="334.0164,849.7753 333.5024,817.4719 281.5709,846.2197 	"/>
	<polygon fill="#00C8D0" points="278.5709,753.2197 332.7863,772.4575 332.4921,753.9595 321.5709,725.2197 	"/>
	<polygon fill="#7E089B" points="333.4452,813.8726 332.8867,778.7663 288.5709,799.2197 	"/>
	<polygon fill="#00F510" points="327.0948,414.7118 326.3287,366.5501 293.5709,411.2198 	"/>
	<polygon fill="#9100BE" points="321.5709,1349.2197 343.5709,1308.2197 281.5709,1340.2197 	"/>
	<polygon fill="#E700C0" points="281.5709,1340.2197 343.5709,1308.2197 276.5709,1294.2197 	"/>
	<polygon fill="#74DB1F" points="343.5709,1308.2197 323.5709,1271.2197 276.5709,1294.2197 	"/>
	<polygon fill="#41C1C6" points="323.5709,587.2197 329.6415,574.7753 329.1796,545.7478 282.5709,544.2197 	"/>
	<polygon fill="#8600D3" points="328.9916,533.9272 328.3922,496.2544 292.5709,503.2198 	"/>
	<polygon fill="#507CE4" points="282.5709,544.2197 329.1796,545.7478 328.9916,533.9272 292.5709,503.2198 	"/>
	<polygon fill="#67C800" points="327.7052,453.0677 327.2354,423.5401 294.5709,440.2198 	"/>
	<polygon fill="#00AADB" points="328.3868,495.9165 327.7052,453.0677 294.5709,440.2198 	"/>
	<polygon fill="#75008F" points="325.2225,297.0213 324.8353,272.6848 290.5709,266.2198 	"/>
	<polygon fill="#7C0040" points="290.5709,266.2198 324.8353,272.6848 324.1715,230.9545 322.5709,227.2197 	"/>
	<path fill="#00E34E" d="M282.5709,220.2197l40,7l1.4045-8.5839l-0.0787-4.9545h-0.0284c0.0176-3.5762,0.6309-6.7555,2.4384-9.2913
		l5.2643-32.1704L282.5709,220.2197z"/>
	<path fill="#988626" d="M282.5709,1628.2197l6.295,26.9788c1.6127-0.011,3.1799-0.0254,4.6805-0.0433l44.0244-33.9354
		L282.5709,1628.2197z"/>
	<polygon fill="#00CCB0" points="283.5709,676.2197 331.2552,676.2197 330.9229,655.3259 323.5709,632.2197 	"/>
	<polygon fill="#E1D100" points="321.5709,725.2197 331.5487,694.6628 331.2552,676.2197 283.5709,676.2197 	"/>
	<polygon fill="#C9CF00" points="338.5709,1208.2197 330.5709,1164.2197 290.5709,1222.2197 	"/>
	<polygon fill="#84007E" points="294.5709,440.2198 327.2354,423.5401 327.0948,414.7118 293.5709,411.2198 	"/>
	<polygon fill="#5100A7" points="330.5709,1164.2197 292.5709,1117.2197 285.5709,1158.2197 	"/>
	<polygon fill="#D8C500" points="282.5709,1628.2197 337.5709,1621.2197 332.5709,1585.2197 	"/>
	<polygon fill="#862101" points="285.5709,1436.2197 284.5709,1476.2197 339.5709,1446.2197 	"/>
	<polygon fill="#00450A" points="288.5709,799.2197 332.8867,778.7663 332.7863,772.4575 278.5709,753.2197 	"/>
	<polygon fill="#00A97D" points="282.5709,544.2197 298.5709,589.2197 323.5709,587.2197 	"/>
	<polygon fill="#2CF17B" points="330.5709,1164.2197 285.5709,1158.2197 290.5709,1222.2197 	"/>
	<polygon fill="#58002D" points="277.5709,174.2197 282.5709,220.2197 331.5709,172.2197 	"/>
	<polygon fill="#6EE896" points="329.5709,133.2197 290.5709,144.2197 331.5709,172.2197 	"/>
	<polygon fill="#009E64" points="330.5709,1091.2197 292.5709,1117.2197 337.5709,1121.2197 	"/>
	<polygon fill="#4AC9E1" points="292.5709,503.2198 328.3922,496.2544 328.3868,495.9165 294.5709,440.2198 	"/>
	<path fill="#F1BA3D" d="M336.5709,84.2197l-4.2983-15.2393c-5.2655-2.9974-9.1243-8.9453-9.4836-13.7607h-5.818l-34.4001,40
		L336.5709,84.2197z"/>
	<polygon fill="#FB5B00" points="281.5709,846.2197 333.5024,817.4719 333.4452,813.8726 288.5709,799.2197 	"/>
	<polygon fill="#D1EA00" points="283.5709,676.2197 281.5709,716.2197 321.5709,725.2197 	"/>
	<polygon fill="#901C12" points="323.5709,587.2197 298.5709,589.2197 323.5709,632.2197 	"/>
	<polygon fill="#00F83B" points="288.5709,320.2198 325.4171,309.2443 325.2225,297.0213 290.5709,266.2198 	"/>
	<polygon fill="#865130" points="323.5709,1271.2197 290.5709,1222.2197 280.5709,1258.2197 	"/>
	<polygon fill="#3E00BC" points="284.5709,1574.2197 282.5709,1628.2197 332.5709,1585.2197 	"/>
	<polygon fill="#005647" points="335.5709,955.2197 278.5709,933.2197 325.5709,990.2197 	"/>
	<polygon fill="#2DE0D5" points="293.5709,1537.2197 323.5709,1531.2197 284.5709,1476.2197 	"/>
	<polygon fill="#009794" points="325.5709,990.2197 286.5709,1023.2197 332.5709,1023.2197 	"/>
	<polygon fill="#B9DF00" points="278.5709,933.2197 278.5709,998.2197 325.5709,990.2197 	"/>
	<polygon fill="#7B22D8" points="316.9709,55.2197 290.7064,55.2197 282.5709,95.2197 	"/>
	<polygon fill="#BCE129" points="328.5709,1385.2197 321.5709,1349.2197 299.5709,1389.2197 	"/>
	<polygon fill="#E2007D" points="282.5709,95.2197 290.5709,144.2197 329.5709,133.2197 	"/>
	<polygon fill="#3A70DC" points="296.5709,1087.2197 292.5709,1117.2197 330.5709,1091.2197 	"/>
	<polygon fill="#004CD2" points="298.5709,589.2197 281.5709,619.2197 323.5709,632.2197 	"/>
	<polygon fill="#4800C2" points="290.5709,144.2197 277.5709,174.2197 331.5709,172.2197 	"/>
	<polygon fill="#78AAF8" points="278.5709,998.2197 286.5709,1023.2197 325.5709,990.2197 	"/>
	<polygon fill="#13CCFC" points="282.5709,220.2197 290.5709,266.2198 322.5709,227.2197 	"/>
	<polygon fill="#6CA02A" points="281.5709,619.2197 283.5709,676.2197 323.5709,632.2197 	"/>
	<polygon fill="#001FBB" points="299.5709,1389.2197 321.5709,1349.2197 281.5709,1340.2197 	"/>
	<polygon fill="#0AB439" points="281.5709,716.2197 278.5709,753.2197 321.5709,725.2197 	"/>
	<polygon fill="#5B00F5" points="276.5709,1294.2197 323.5709,1271.2197 280.5709,1258.2197 	"/>
	<polygon fill="#90E500" points="281.5709,619.2197 263.009,629.6906 262.5833,658.3035 283.5709,676.2197 	"/>
	<polygon fill="#B6D600" points="262.5833,658.3035 262.4105,669.9288 283.5709,676.2197 	"/>
	<polygon fill="#000C86" points="240.5708,1481.2197 240.5708,1533.2197 284.5709,1476.2197 	"/>
	<polygon fill="#0076B3" points="288.5709,799.2197 260.3511,808.3721 260.1597,821.2401 281.5709,846.2197 	"/>
	<polygon fill="#AD0019" points="285.5709,1158.2197 248.5709,1169.2197 290.5709,1222.2197 	"/>
	<polygon fill="#C50039" points="290.5709,266.2198 268.0809,288.7097 267.6772,315.8467 288.5709,320.2198 	"/>
	<polygon fill="#3B00EB" points="281.5709,846.2197 259.2383,883.1838 259.0694,894.5447 292.5709,896.2197 	"/>
	<polygon fill="#B03700" points="265.2365,479.9348 264.8978,502.7073 292.5709,503.2198 	"/>
	<polygon fill="#A000DD" points="240.5708,1533.2197 293.5709,1537.2197 284.5709,1476.2197 	"/>
	<polygon fill="#00D880" points="294.5709,440.2198 265.6968,448.9851 265.2365,479.9348 292.5709,503.2198 	"/>
	<path fill="#DE0050" d="M290.7064,55.2197h-25.3321c-0.8525,5.2769-3.2188,9.7966-7.6611,13.2781l24.8577,26.7219L290.7064,55.2197
		z"/>
	<path fill="#B4B22B" d="M286.5709,1023.2197l-29.9574,36.4347l-0.1128,7.5837c-0.4448,1.1241-0.922,2.1837-1.4152,3.2109
		l41.4854,16.7706L286.5709,1023.2197z"/>
	<polygon fill="#149E00" points="296.5709,353.2198 266.7067,381.093 266.4124,400.8737 293.5709,411.2198 	"/>
	<polygon fill="#002933" points="267.0218,359.9102 266.7067,381.093 296.5709,353.2198 	"/>
	<polygon fill="#50003E" points="282.5709,544.2197 263.9814,564.3164 263.66,585.9263 298.5709,589.2197 	"/>
	<polygon fill="#0053B7" points="299.5709,1389.2197 242.5708,1391.2197 285.5709,1436.2197 	"/>
	<polygon fill="#CEF106" points="281.5709,1340.2197 242.5708,1391.2197 299.5709,1389.2197 	"/>
	<polygon fill="#00B159" points="242.5708,1617.2197 282.5709,1628.2197 284.5709,1574.2197 	"/>
	<polygon fill="#085F15" points="282.5709,220.2197 269.0234,225.3458 268.6473,250.6297 290.5709,266.2198 	"/>
	<polygon fill="#00CE4D" points="292.5709,1117.2197 247.5708,1130.2197 285.5709,1158.2197 	"/>
	<polygon fill="#648F00" points="298.5709,589.2197 263.66,585.9263 263.4271,601.58 281.5709,619.2197 	"/>
	<polygon fill="#F10097" points="278.5709,933.2197 258.1451,956.6877 257.6003,993.3117 278.5709,998.2197 	"/>
	<polygon fill="#5E6500" points="281.5709,1340.2197 237.5708,1352.2197 242.5708,1391.2197 	"/>
	<polygon fill="#EA0058" points="259.7213,850.7181 259.2383,883.1838 281.5709,846.2197 	"/>
	<polygon fill="#00CD52" points="278.5709,753.2197 261.077,759.5812 260.8138,777.2722 288.5709,799.2197 	"/>
	<polygon fill="#6B79E7" points="268.4022,267.1065 268.0809,288.7097 290.5709,266.2198 	"/>
	<polygon fill="#A27A26" points="282.5709,95.2197 253.0353,115.304 252.7628,134.4418 290.5709,144.2197 	"/>
	<path fill="#44CD00" d="M292.5709,1117.2197l-38.805-44.2196c-1.376,2.4432-2.9021,4.5742-4.5564,6.4197l-1.6387,50.7999
		L292.5709,1117.2197z"/>
	<polygon fill="#002F96" points="293.5709,411.2198 266.4124,400.8737 266.2679,410.6003 294.5709,440.2198 	"/>
	<path fill="#B3BD4A" d="M296.5709,1087.2197l-41.4854-16.7706c-0.424,0.8829-0.8616,1.7378-1.3196,2.551l38.805,44.2196
		L296.5709,1087.2197z"/>
	<polygon fill="#1EBAEB" points="288.5709,320.2198 267.2957,341.4949 267.0218,359.9102 296.5709,353.2198 	"/>
	<polygon fill="#B8D563" points="290.5709,1222.2197 248.5709,1169.2197 233.5708,1226.2197 	"/>
	<polygon fill="#210BB8" points="292.5709,896.2197 259.0694,894.5447 258.9323,903.7618 278.5709,933.2197 	"/>
	<polygon fill="#008E27" points="292.5709,503.2198 264.8978,502.7073 264.5363,527.0049 282.5709,544.2197 	"/>
	<polygon fill="#C8613B" points="240.5708,1533.2197 284.5709,1574.2197 293.5709,1537.2197 	"/>
	<polygon fill="#00F20B" points="266.2679,410.6003 265.6968,448.9851 294.5709,440.2198 	"/>
	<polygon fill="#40005A" points="264.5363,527.0049 264.3275,541.0469 282.5709,544.2197 	"/>
	<path fill="#A7004C" d="M253.3013,96.6135l-0.0063,0.4503l-6.8245-0.0865c0,0,0.0007-0.0269,0.001-0.0386l-5.9006,0.281
		l-4.3999,17.5994c3.2654,0.2174,6.571-0.7844,8.0909-2.2761c3.0223-4.5591,2.3219-10.5989,2.3219-10.5989l6.6402,0.1145
		l-0.1886,13.2454l29.5356-20.0842L253.3013,96.6135z"/>
	<polygon fill="#7E0055" points="267.6772,315.8467 267.2957,341.4949 288.5709,320.2198 	"/>
	<polygon fill="#00AEB8" points="258.4687,934.9305 258.1451,956.6877 278.5709,933.2197 	"/>
	<polygon fill="#8500D9" points="235.5708,1581.2197 242.5708,1617.2197 284.5709,1574.2197 	"/>
	<polygon fill="#006CB1" points="242.5708,1391.2197 233.5708,1430.2197 285.5709,1436.2197 	"/>
	<polygon fill="#0052E5" points="290.5709,1222.2197 233.5708,1226.2197 280.5709,1258.2197 	"/>
	<polygon fill="#035900" points="268.6473,250.6297 268.4022,267.1065 290.5709,266.2198 	"/>
	<path fill="#ED8200" d="M277.5709,174.2197l-25.5161,9.9575l-0.2184,15.3333c7.9164,0.9775,15.6959,4.0083,17.1044,11.8201
		l13.6302,8.8892L277.5709,174.2197z"/>
	<polygon fill="#B20079" points="283.5709,676.2197 261.8691,706.3221 261.6912,718.2762 281.5709,716.2197 	"/>
	<polygon fill="#4700F1" points="240.5708,1481.2197 284.5709,1476.2197 285.5709,1436.2197 	"/>
	<polygon fill="#E159E7" points="257.1467,1023.8082 256.6135,1059.6544 286.5709,1023.2197 	"/>
	<polygon fill="#22C017" points="260.8138,777.2722 260.3511,808.3721 288.5709,799.2197 	"/>
	<path fill="#3D5800" d="M260.9676,1654.9063c10.3538,0.2988,19.8062,0.3477,27.8983,0.2922l-6.295-26.9788L260.9676,1654.9063z"/>
	<polygon fill="#310012" points="290.5709,144.2197 252.7628,134.4418 252.5527,149.2016 277.5709,174.2197 	"/>
	<polygon fill="#2BDA92" points="276.5709,1294.2197 231.5708,1312.2197 281.5709,1340.2197 	"/>
	<polygon fill="#EA1E2F" points="281.5709,716.2197 261.6912,718.2762 261.5035,730.9009 278.5709,753.2197 	"/>
	<path fill="#A4CA00" d="M257.7132,68.4978c-1.1973,0.9385-2.5366,1.8057-4.0483,2.5869l-0.3635,25.5288l29.2696-1.3938
		L257.7132,68.4978z"/>
	<path fill="#A4CA00" d="M246.4715,96.9387c0.0123-0.4044,0.1975-7.6282-2.1021-10.0166c-0.8464-0.8792-1.9784-1.4979-3.2585-1.8522
		l-0.54,12.1498L246.4715,96.9387z"/>
	<polygon fill="#C84200" points="233.5708,1430.2197 240.5708,1481.2197 285.5709,1436.2197 	"/>
	<polygon fill="#3B1D01" points="262.4105,669.9288 261.8691,706.3221 283.5709,676.2197 	"/>
	<polygon fill="#00FCCE" points="235.5708,1581.2197 284.5709,1574.2197 240.5708,1533.2197 	"/>
	<polygon fill="#B74800" points="285.5709,1158.2197 247.5708,1130.2197 248.5709,1169.2197 	"/>
	<polygon fill="#BBE000" points="278.5709,998.2197 257.3317,1011.3678 257.1467,1023.8082 286.5709,1023.2197 	"/>
	<polygon fill="#A10023" points="280.5709,1258.2197 235.5708,1265.2197 276.5709,1294.2197 	"/>
	<path fill="#B75EF2" d="M242.5708,1617.2197l4.2037,37.1329c4.8825,0.243,9.6205,0.4218,14.193,0.5536l21.6033-26.6865
		L242.5708,1617.2197z"/>
	<polygon fill="#F21BEA" points="264.3275,541.0469 263.9814,564.3164 282.5709,544.2197 	"/>
	<polygon fill="#008DFA" points="260.1597,821.2401 259.7213,850.7181 281.5709,846.2197 	"/>
	<path fill="#C97804" d="M268.9407,211.3306c0.1467,0.8134,0.2468,1.6616,0.2478,2.582h0.0049l-0.17,11.4332l13.5475-5.1261
		L268.9407,211.3306z"/>
	<polygon fill="#00911F" points="233.5708,1226.2197 235.5708,1265.2197 280.5709,1258.2197 	"/>
	<polygon fill="#1D6EF3" points="231.5708,1312.2197 237.5708,1352.2197 281.5709,1340.2197 	"/>
	<polygon fill="#C4583C" points="263.4271,601.58 263.009,629.6906 281.5709,619.2197 	"/>
	<path fill="#F6006F" d="M252.5527,149.2016l-0.1453,10.2017l-5.9943-0.0759c0,0,0.2649-7.598-2.1011-10.0552
		c-2.2883-2.3766-6.6229-2.9066-10.5028-1.1671l1.9042,29.0383c3.3921,0.3323,6.9089-0.6978,8.4911-2.2505
		c3.0222-4.5591,2.3219-10.5989,2.3219-10.5989l5.81,0.1001l-0.2816,19.7832l25.5161-9.9575L252.5527,149.2016z"/>
	<polygon fill="#5F9316" points="258.9323,903.7618 258.4687,934.9305 278.5709,933.2197 	"/>
	<polygon fill="#6FE16F" points="261.5035,730.9009 261.077,759.5812 278.5709,753.2197 	"/>
	<polygon fill="#00B392" points="257.6003,993.3117 257.3317,1011.3678 278.5709,998.2197 	"/>
	<polygon fill="#072A0F" points="235.5708,1265.2197 231.5708,1312.2197 276.5709,1294.2197 	"/>
	<path fill="#5B008A" d="M230.6824,150.1262c-3.6797,3.5004-2.5615,21.629-0.4445,24.8118c1.4944,1.333,3.463,2.0083,5.4755,2.2053
		l-1.9042-29.0383C232.7123,148.5967,231.6497,149.2598,230.6824,150.1262z"/>
	<polygon fill="#35820F" points="233.5708,1430.2197 204.5708,1446.2197 240.5708,1481.2197 	"/>
	<polygon fill="#13F200" points="192.5708,1518.2197 240.5708,1533.2197 240.5708,1481.2197 	"/>
	<path fill="#CE00A0" d="M241.1109,85.07c-3.1594-0.8741-7.248-0.0909-10.3711,2.7064c-1.2528,1.1918-1.9485,4.0806-2.2389,7.4966
		l12.07,1.9468L241.1109,85.07z"/>
	<path fill="#00DC71" d="M247.5708,1130.2197l-42.4878-45.0891c-2.3018-0.8767-4.5892-1.8633-6.8425-2.9474l-2.6697,32.0365
		L247.5708,1130.2197z"/>
	<path fill="#E42F1A" d="M211.319,1651.5206c12.2072,1.3792,24.1898,2.2712,35.4556,2.832l-4.2037-37.1329L211.319,1651.5206z"/>
	<polygon fill="#780089" points="248.5709,1169.2197 247.5708,1130.2197 203.5708,1181.2197 	"/>
	<polygon fill="#B89100" points="248.5709,1169.2197 203.5708,1181.2197 233.5708,1226.2197 	"/>
	<path fill="#C0004F" d="M249.2095,1079.4198c-11.0994,12.3831-27.9753,11.8622-44.1265,5.7108l42.4878,45.0891L249.2095,1079.4198z
		"/>
	<polygon fill="#D90093" points="247.5708,1130.2197 195.5708,1114.2197 203.5708,1181.2197 	"/>
	<path fill="#C600F8" d="M193.5708,1622.2197l5.5518,27.7592c4.0781,0.5704,8.1495,1.0845,12.1964,1.5417l31.2518-34.3009
		L193.5708,1622.2197z"/>
	<polygon fill="#B40300" points="237.5708,1352.2197 203.5708,1392.2197 242.5708,1391.2197 	"/>
	<polygon fill="#069EBE" points="197.5708,1479.2197 192.5708,1518.2197 240.5708,1481.2197 	"/>
	<polygon fill="#A20097" points="242.5708,1391.2197 203.5708,1392.2197 233.5708,1430.2197 	"/>
	<polygon fill="#00DF71" points="186.5708,1581.2197 235.5708,1581.2197 240.5708,1533.2197 	"/>
	<polygon fill="#02008D" points="235.5708,1265.2197 204.5708,1312.2197 231.5708,1312.2197 	"/>
	<polygon fill="#00488D" points="193.5708,1622.2197 242.5708,1617.2197 235.5708,1581.2197 	"/>
	<polygon fill="#27008A" points="204.5708,1312.2197 192.5708,1340.2197 231.5708,1312.2197 	"/>
	<polygon fill="#00CB44" points="203.5708,1181.2197 196.5708,1221.2197 233.5708,1226.2197 	"/>
	<polygon fill="#BC7000" points="231.5708,1312.2197 192.5708,1340.2197 237.5708,1352.2197 	"/>
	<polygon fill="#29FC43" points="192.5708,1518.2197 186.5708,1581.2197 240.5708,1533.2197 	"/>
	<polygon fill="#00A7FA" points="204.5708,1446.2197 197.5708,1479.2197 240.5708,1481.2197 	"/>
	<path fill="#BE1F00" d="M228.5009,95.273c-0.5626,6.6171,0.3982,15.2161,1.7946,17.3152c1.5933,1.4211,3.7257,2.0879,5.8755,2.231
		l4.3999-17.5994L228.5009,95.273z"/>
	<polygon fill="#5500A8" points="233.5708,1226.2197 190.5708,1250.2197 235.5708,1265.2197 	"/>
	<polygon fill="#748B00" points="186.5708,1581.2197 193.5708,1622.2197 235.5708,1581.2197 	"/>
	<polygon fill="#EB0046" points="190.5708,1250.2197 204.5708,1312.2197 235.5708,1265.2197 	"/>
	<polygon fill="#0037F8" points="237.5708,1352.2197 192.5708,1340.2197 203.5708,1392.2197 	"/>
	<polygon fill="#299954" points="196.5708,1221.2197 190.5708,1250.2197 233.5708,1226.2197 	"/>
	<polygon fill="#E90012" points="203.5708,1392.2197 204.5708,1446.2197 233.5708,1430.2197 	"/>
	<polygon fill="#71003D" points="151.5708,1524.2197 186.5708,1581.2197 192.5708,1518.2197 	"/>
	<path fill="#00F580" d="M187.9067,1076.4424c-8.5946-5.4238-16.1215-11.8494-21.3027-17.8358l-10.0332,12.6132L187.9067,1076.4424z
		"/>
	<polygon fill="#18B952" points="192.5708,1340.2197 159.5708,1347.2197 203.5708,1392.2197 	"/>
	<polygon fill="#167A59" points="195.5708,1114.2197 156.5708,1125.2197 203.5708,1181.2197 	"/>
	<polygon fill="#0BB471" points="156.5708,1125.2197 149.5708,1168.2197 203.5708,1181.2197 	"/>
	<polygon fill="#007943" points="203.5708,1181.2197 158.5708,1203.2197 196.5708,1221.2197 	"/>
	<polygon fill="#D8009F" points="203.5708,1392.2197 150.5708,1406.2197 204.5708,1446.2197 	"/>
	<polygon fill="#795A00" points="150.5708,1406.2197 150.5708,1445.2197 204.5708,1446.2197 	"/>
	<polygon fill="#98CC10" points="190.5708,1250.2197 150.5708,1302.2197 204.5708,1312.2197 	"/>
	<path fill="#002D79" d="M162.5708,1630.2197l21.0845,17.3c5.1425,0.9232,10.3095,1.7378,15.4673,2.4591l-5.5518-27.7592
		L162.5708,1630.2197z"/>
	<polygon fill="#0E661B" points="204.5708,1446.2197 150.5708,1445.2197 197.5708,1479.2197 	"/>
	<polygon fill="#5AF300" points="159.5708,1347.2197 150.5708,1406.2197 203.5708,1392.2197 	"/>
	<polygon fill="#6200CA" points="204.5708,1312.2197 150.5708,1302.2197 192.5708,1340.2197 	"/>
	<polygon fill="#231953" points="197.5708,1479.2197 152.5708,1489.2197 192.5708,1518.2197 	"/>
	<polygon fill="#8A4A18" points="149.5708,1168.2197 158.5708,1203.2197 203.5708,1181.2197 	"/>
	<path fill="#6A0500" d="M195.5708,1114.2197l2.6697-32.0365c-3.553-1.7094-7.022-3.6508-10.3338-5.7408l-31.336-5.2227
		L195.5708,1114.2197z"/>
	<path fill="#0090A8" d="M160.651,1642.5612c7.5261,1.9226,15.2343,3.5637,23.0043,4.9586l-21.0845-17.3L160.651,1642.5612z"/>
	<polygon fill="#67005F" points="141.5708,1255.2197 150.5708,1302.2197 190.5708,1250.2197 	"/>
	<path fill="#3E1578" d="M156.5708,1071.2197l10.0332-12.6132c-1.885-2.1781-3.4658-4.2991-4.666-6.2909
		c-3.0487-4.5618-5.8442-9.0702-8.418-13.5153l-7.9492,2.4193L156.5708,1071.2197z"/>
	<polygon fill="#290087" points="192.5708,1340.2197 150.5708,1302.2197 159.5708,1347.2197 	"/>
	<polygon fill="#F9BF00" points="162.5708,1630.2197 193.5708,1622.2197 186.5708,1581.2197 	"/>
	<polygon fill="#670510" points="156.5708,1071.2197 156.5708,1125.2197 195.5708,1114.2197 	"/>
	<polygon fill="#00C11F" points="150.5708,1445.2197 152.5708,1489.2197 197.5708,1479.2197 	"/>
	<polygon fill="#0400D5" points="196.5708,1221.2197 158.5708,1203.2197 190.5708,1250.2197 	"/>
	<polygon fill="#A400FA" points="142.5708,1585.2197 186.5708,1581.2197 151.5708,1524.2197 	"/>
	<polygon fill="#BBF600" points="142.5708,1585.2197 162.5708,1630.2197 186.5708,1581.2197 	"/>
	<polygon fill="#000CB5" points="158.5708,1203.2197 141.5708,1255.2197 190.5708,1250.2197 	"/>
	<path fill="#00411E" d="M153.52,1038.8004c-3.2073-5.5392-6.0601-10.9761-8.6057-16.2892l0.6565,18.7086L153.52,1038.8004z"/>
	<polygon fill="#A3F200" points="192.5708,1518.2197 152.5708,1489.2197 151.5708,1524.2197 	"/>
	<polygon fill="#1D0090" points="105.5707,1527.2197 114.5707,1584.2197 142.5708,1585.2197 	"/>
	<path fill="#E1BE00" d="M126.1954,964.4478c-1.2094-6.7009-2.0074-12.7017-2.6163-17.8687l-9.0083,4.6406L126.1954,964.4478z"/>
	<path fill="#00F416" d="M150.5708,1302.2197l-25.5488,1.2775c-3.5422,7.8499-7.5714,15.7426-11.8596,24.0474l3.4085,30.6752
		L150.5708,1302.2197z"/>
	<polygon fill="#EEB600" points="105.5707,1527.2197 142.5708,1585.2197 151.5708,1524.2197 	"/>
	<path fill="#300082" d="M111.0117,1623.0168c1.25,0.7495,2.5212,1.4822,3.8141,2.1978l-3.255-3.9949L111.0117,1623.0168z"/>
	<path fill="#00FC42" d="M156.5708,1071.2197l-53.0093,19.2761c0.2222,0.7909,0.4456,1.5804,0.6699,2.3687l52.3394,32.3552
		V1071.2197z"/>
	<path fill="#DA0082" d="M158.5708,1203.2197l-23.9108,2.517c0.5665,2.9554,1.1254,5.9473,1.6666,9.0216
		c2.448,13.9032,3.1282,26.0978,2.4437,37.241l2.8004,3.2205L158.5708,1203.2197z"/>
	<polygon fill="#00A39F" points="150.5708,1302.2197 116.5707,1358.2197 159.5708,1347.2197 	"/>
	<polygon fill="#085F20" points="159.5708,1347.2197 116.5707,1358.2197 150.5708,1406.2197 	"/>
	<path fill="#F721EF" d="M111.5707,1621.2197l3.255,3.9949c13.4716,7.4568,29.1923,13.0977,45.8252,17.3466l1.9198-12.3414
		L111.5707,1621.2197z"/>
	<polygon fill="#A80254" points="111.5707,1621.2197 162.5708,1630.2197 142.5708,1585.2197 	"/>
	<polygon fill="#327500" points="116.5707,1358.2197 105.5707,1384.2197 150.5708,1406.2197 	"/>
	<path fill="#F31B00" d="M156.5708,1125.2197l-39.8352,9.3231c0.9602,3.1963,1.9192,6.4319,2.8754,9.709l29.9599,23.9679
		L156.5708,1125.2197z"/>
	<path fill="#005E85" d="M149.5708,1168.2197l-21.3385,8.002c0.9137,3.7421,1.8138,7.561,2.6929,11.4895l27.6457,15.5085
		L149.5708,1168.2197z"/>
	<path fill="#8C660E" d="M141.5708,1255.2197l-3.1851,1.5925c-1.0242,10.3234-3.2356,19.7784-6.3045,28.9169l18.4895,16.4906
		L141.5708,1255.2197z"/>
	<path fill="#0C00F4" d="M145.5708,1041.2197l-0.6565-18.7086c-3.5448-7.399-6.4893-14.5533-8.9456-21.3981l-19.398,43.1067
		L145.5708,1041.2197z"/>
	<polygon fill="#00230F" points="150.5708,1445.2197 102.5707,1475.2197 152.5708,1489.2197 	"/>
	<path fill="#40B000" d="M104.2314,1092.8645c3.9624,13.9215,8.2341,27.4642,12.5042,41.6783l39.8352-9.3231L104.2314,1092.8645z"/>
	<path fill="#6400A6" d="M130.9251,1187.7112c1.2919,5.7732,2.538,11.7814,3.7349,18.0255l23.9108-2.517L130.9251,1187.7112z"/>
	<path fill="#A07F00" d="M116.5707,1044.2197l19.398-43.1067c-2.155-6.0055-3.9387-11.7734-5.4196-17.255l-22.9784-0.6383
		L116.5707,1044.2197z"/>
	<polygon fill="#6CDB53" points="150.5708,1406.2197 103.5707,1439.2197 150.5708,1445.2197 	"/>
	<polygon fill="#BF00E1" points="152.5708,1489.2197 105.5707,1527.2197 151.5708,1524.2197 	"/>
	<polygon fill="#11136D" points="116.5707,1044.2197 156.5708,1071.2197 145.5708,1041.2197 	"/>
	<path fill="#87E81A" d="M116.5707,1044.2197l-13.8291,43.3315c0.2717,0.9835,0.5447,1.9658,0.8198,2.9446l53.0093-19.2761
		L116.5707,1044.2197z"/>
	<path fill="#D27100" d="M132.0813,1285.7291c-2.0166,6.0051-4.4001,11.8756-7.0593,17.7681l25.5488-1.2775L132.0813,1285.7291z"/>
	<path fill="#D8DF00" d="M119.6109,1144.2518c2.9456,10.0962,5.8536,20.635,8.6213,31.9698l21.3385-8.002L119.6109,1144.2518z"/>
	<polygon fill="#5600E5" points="103.5707,1439.2197 102.5707,1475.2197 150.5708,1445.2197 	"/>
	<polygon fill="#A9006E" points="152.5708,1489.2197 102.5707,1475.2197 105.5707,1527.2197 	"/>
	<polygon fill="#00F24E" points="114.5707,1584.2197 111.5707,1621.2197 142.5708,1585.2197 	"/>
	<polygon fill="#930C5B" points="105.5707,1384.2197 103.5707,1439.2197 150.5708,1406.2197 	"/>
	<path fill="#63E100" d="M123.579,946.5791c-1.623-13.7742-1.9091-21.6274-5.1016-21.0339h0.0002
		c-1.9613,1.3263-4.085,3.9456-6.2587,7.5331l2.3517,18.1415L123.579,946.5791z"/>
	<path fill="#43D907" d="M107.5707,983.2197l22.9784,0.6383c-1.8802-6.9602-3.2802-13.4612-4.3538-19.4103l-11.6246-13.228
		L107.5707,983.2197z"/>
	<path fill="#117D4C" d="M138.7704,1251.9993c-0.0999,1.6257-0.2275,3.2302-0.3846,4.813l3.1851-1.5925L138.7704,1251.9993z"/>
	<polygon fill="#4183A2" points="68.5707,1529.2197 114.5707,1584.2197 105.5707,1527.2197 	"/>
	<path fill="#009EF4" d="M68.5707,1529.2197l-3.9033,17.3875c1.8593,11.7007,4.8334,22.9408,9.1968,33.3276l40.7066,4.2849
		L68.5707,1529.2197z"/>
	<path fill="#2B0095" d="M112.2191,933.0782c-2.3977,3.9572-4.8563,9.0948-7.2274,15.0136l9.5791,3.1279L112.2191,933.0782z"/>
	<path fill="#891C74" d="M113.1623,1327.5446c-5.0764,9.8314-10.5161,20.2466-15.9482,31.8604l19.3567-1.1852L113.1623,1327.5446z"
		/>
	<path fill="#C3F300" d="M107.5707,983.2197l-16.7893,20.5202c-1.3096,10.9053-1.4814,21.0502,0.0262,28.9394
		c0.0991,0.6498,0.2064,1.2795,0.3077,1.924l25.4553,9.6165L107.5707,983.2197z"/>
	<path fill="#00F386" d="M91.1154,1034.6033c3.0632,19.4861,7.1034,36.5789,11.6262,52.948l13.8291-43.3315L91.1154,1034.6033z"/>
	<polygon fill="#D20035" points="102.5707,1475.2197 68.5707,1529.2197 105.5707,1527.2197 	"/>
	<path fill="#A900D3" d="M105.5707,1384.2197l-27.5615,25.8024c-1.9292,6.6431-3.8508,13.8772-5.6564,21.5667l31.2179,7.631
		L105.5707,1384.2197z"/>
	<path fill="#5C00B3" d="M114.5707,1584.2197l-26.479,19.9944c0.1853,0.2318,0.3606,0.4709,0.5481,0.701
		c5.4419,6.1514,12.0325,11.5498,19.4688,16.3046h3.4622L114.5707,1584.2197z"/>
	<path fill="#2ED200" d="M93.6091,986.6326c-1.1917,5.7687-2.1587,11.5369-2.8276,17.1074l16.7893-20.5202L93.6091,986.6326z"/>
	<path fill="#00D498" d="M108.1086,1621.2197c0.9539,0.6099,1.9216,1.2086,2.9031,1.7971l0.5591-1.7971H108.1086z"/>
	<path fill="#00923F" d="M73.8642,1579.9348c3.6908,8.7861,8.3803,16.9568,14.2276,24.2793l26.479-19.9944L73.8642,1579.9348z"/>
	<path fill="#8A00F3" d="M116.5707,1358.2197l-19.3567,1.1852c-2.3179,4.9557-4.6338,10.1274-6.9194,15.5688l15.2761,9.246
		L116.5707,1358.2197z"/>
	<path fill="#DE5300" d="M102.5707,1475.2197l-39.2041,10.9772c-0.7982,8.9315-1.2419,17.9703-1.2205,26.9615l6.4246,16.0613
		L102.5707,1475.2197z"/>
	<path fill="#978116" d="M114.5707,951.2197l-9.5791-3.1279c-2.7798,6.9391-5.437,14.943-7.7336,23.3419l10.3128,11.786
		L114.5707,951.2197z"/>
	<path fill="#9EFC18" d="M85.5861,1386.8103c-2.3625,6.3904-4.9753,14.2526-7.5769,23.2118l27.5615-25.8024L85.5861,1386.8103z"/>
	<path fill="#0ADB66" d="M97.258,971.4337c-1.3604,4.9741-2.5928,10.0854-3.6489,15.1989l13.9617-3.4128L97.258,971.4337z"/>
	<path fill="#11A254" d="M103.5707,1439.2197l-31.2179-7.631c-0.702,2.9899-1.3839,6.0537-2.0443,9.1691l32.2622,34.4619
		L103.5707,1439.2197z"/>
	<path fill="#00F076" d="M70.3085,1440.7578c-3.0164,14.2263-5.532,29.66-6.9419,45.4391l39.2041-10.9772L70.3085,1440.7578z"/>
	<path fill="#0068BA" d="M90.2946,1374.9738c-0.9183,2.1864-1.832,4.4132-2.7386,6.6891c-0.6307,1.5834-1.2911,3.3114-1.9699,5.1475
		l19.9846-2.5906L90.2946,1374.9738z"/>
	<path fill="#0CB81C" d="M62.6737,1528.6527c0.4067,6.0675,1.0583,12.0687,1.9937,17.9545l3.9033-17.3875L62.6737,1528.6527z"/>
	<path fill="#5A00CD" d="M62.1461,1513.1584c0.0125,5.1919,0.1838,10.3657,0.5276,15.4943l5.897,0.567L62.1461,1513.1584z"/>
</g>
</svg>
